<?xml version="1.0" encoding="utf-8"?>
<!-- Generator: Adobe Illustrator 26.2.1, SVG Export Plug-In . SVG Version: 6.00 Build 0)  -->
<svg version="1.1" id="Layer_1" xmlns="http://www.w3.org/2000/svg" xmlns:xlink="http://www.w3.org/1999/xlink" x="0px" y="0px"
	 viewBox="0 0 288.2 288.2" style="enable-background:new 0 0 288.2 288.2;" xml:space="preserve">
<style type="text/css">
	.st0{fill:url(#SVGID_1_);}
	.st1{opacity:0.84;}
	.st2{opacity:0.88;fill:#FFFFFF;}
	.st3{fill:#FFFFFF;}
	.st4{opacity:0.84;fill:#FFFFFF;}
	.st5{fill:url(#SVGID_00000095302830005023204800000010659023855142248861_);}
	.st6{fill:url(#SVGID_00000073706502633990584840000017059847219469696681_);}
	.st7{fill:url(#SVGID_00000114032057046375369130000005727838217349404817_);}
	.st8{fill:#1E2141;}
	.st9{opacity:0.45;}
	.st10{fill:url(#SVGID_00000102536932271413396330000015451570809421311402_);}
	.st11{opacity:0.2;fill:#FFFFFF;}
	.st12{opacity:0.3;fill:#FFFFFF;}
	.st13{opacity:0.4;fill:url(#SVGID_00000067941511122139082120000007528649914256869307_);}
	.st14{opacity:0.53;}
	.st15{opacity:0.53;fill:#FFFFFF;}
	.st16{fill:url(#SVGID_00000036946286650553102300000013945449753051900800_);}
	.st17{opacity:0.25;fill:url(#SVGID_00000075147586477414380070000002475531522988607160_);}
	.st18{fill:#CCCCCC;}
	.st19{fill:url(#SVGID_00000054251137716695254630000006494080342266105494_);}
</style>
<g>
	<radialGradient id="SVGID_1_" cx="144.0763" cy="144.0763" r="144.0763" gradientUnits="userSpaceOnUse">
		<stop  offset="0" style="stop-color:#E9AEB9"/>
		<stop  offset="7.235993e-02" style="stop-color:#D8A1AE"/>
		<stop  offset="0.212" style="stop-color:#B18094"/>
		<stop  offset="0.4048" style="stop-color:#765371"/>
		<stop  offset="0.641" style="stop-color:#32294B"/>
		<stop  offset="0.7169" style="stop-color:#1E2141"/>
		<stop  offset="1" style="stop-color:#1E2141"/>
	</radialGradient>
	<circle class="st0" cx="144.1" cy="144.1" r="144.1"/>
	<g class="st1">
		<path class="st2" d="M210.6,198c0.7-3.1-4.1-4.3-4.9-1.1C205,200,209.9,201.1,210.6,198z"/>
		<path class="st3" d="M216.5,188.9c0.4-1.9-2.5-2.6-2.9-0.7C213.1,190.1,216,190.8,216.5,188.9z"/>
		<path class="st3" d="M220.4,177.7c0.4-1.9-2.5-2.6-2.9-0.7C217,178.9,219.9,179.6,220.4,177.7z"/>
		<path class="st3" d="M222.9,200.4c0.4-1.9-2.5-2.6-2.9-0.7C219.6,201.6,222.5,202.3,222.9,200.4z"/>
		<path class="st2" d="M227.3,188.9c0.2-0.9-1.2-1.3-1.5-0.3C225.6,189.5,227.1,189.9,227.3,188.9z"/>
		<path class="st3" d="M235.2,190.8c0.2-0.9-1.2-1.3-1.5-0.3C233.5,191.4,235,191.7,235.2,190.8z"/>
		<path class="st3" d="M232.2,180.2c0.2-0.9-1.2-1.3-1.5-0.3C230.5,180.8,232,181.2,232.2,180.2z"/>
	</g>
	<g class="st1">
		<path class="st3" d="M73.6,102.8c-3.2,0-3.2,5,0,5C76.8,107.8,76.8,102.8,73.6,102.8z"/>
		<path class="st2" d="M73.2,117.3c-3.2,0-3.2,5,0,5C76.4,122.3,76.4,117.3,73.2,117.3z"/>
		<path class="st2" d="M63.4,99.2c-1.9,0-1.9,3,0,3C65.4,102.2,65.4,99.2,63.4,99.2z"/>
		<path class="st3" d="M53.9,108.9c-3.3,0-3.3,5.2,0,5.2C57.3,114.1,57.3,108.9,53.9,108.9z"/>
		<path class="st3" d="M65.1,113.5c-1.9,0-1.9,3,0,3C67.1,116.5,67.1,113.5,65.1,113.5z"/>
		<path class="st2" d="M51.6,97.9c-1.9,0-1.9,3,0,3C53.6,100.9,53.6,97.9,51.6,97.9z"/>
		<path class="st3" d="M73.2,90.3c-1.9,0-1.9,3,0,3C75.1,93.3,75.1,90.3,73.2,90.3z"/>
		<path class="st3" d="M61,88.6c-1,0-1,1.5,0,1.5C62,90.1,62,88.6,61,88.6z"/>
		<path class="st2" d="M61,80.5c-1,0-1,1.5,0,1.5C62,82,62,80.5,61,80.5z"/>
		<path class="st3" d="M51.4,85.8c-1,0-1,1.5,0,1.5C52.4,87.3,52.4,85.8,51.4,85.8z"/>
		<path class="st2" d="M83.3,94.5c-1.9,0-1.9,3,0,3C85.2,97.5,85.2,94.5,83.3,94.5z"/>
	</g>
	<path class="st4" d="M205.1,76.2c0,0-1.1,8.3-5.5,9.6c0,0,4.6,1.5,5.5,7.5c0,0,2.3-8.2,4.6-8.5C209.7,84.8,204.9,83.5,205.1,76.2z"
		/>
	<path class="st4" d="M191.4,65.3c0,0-0.9,5.3-6.6,8.1c0,0,4.1,2.6,4.9,6.2c0,0,1.6-4.4,5.1-6.3C194.8,73.3,189.7,71.2,191.4,65.3z"
		/>
	<path class="st4" d="M83.8,201.7c0,0-0.8,4.6-5.7,7c0,0,3.6,2.3,4.3,5.3c0,0,1.4-3.8,4.4-5.4C86.8,208.6,82.4,206.8,83.8,201.7z"/>
	<path class="st4" d="M197.7,63.2c-0.6,0-0.6,1,0,1C198.3,64.2,198.3,63.2,197.7,63.2z"/>
	<path class="st4" d="M203.1,71.4c-0.6,0-0.6,1,0,1C203.8,72.4,203.8,71.4,203.1,71.4z"/>
	<path class="st4" d="M213,65.4c-0.6,0-0.6,1,0,1C213.6,66.4,213.6,65.4,213,65.4z"/>
	<path class="st4" d="M216.3,76.9c-0.6,0-0.6,1,0,1C216.9,77.9,216.9,76.9,216.3,76.9z"/>
	<path class="st4" d="M72.6,205.3c-0.6,0-0.6,1,0,1C73.2,206.3,73.2,205.3,72.6,205.3z"/>
	<path class="st4" d="M76.4,213c-0.6,0-0.6,1,0,1C77,214,77,213,76.4,213z"/>
	<path class="st4" d="M64.9,211.3c-0.6,0-0.6,1,0,1C65.5,212.3,65.5,211.3,64.9,211.3z"/>
	<path class="st4" d="M76.4,223.3c-0.6,0-0.6,1,0,1C77,224.3,77,223.3,76.4,223.3z"/>
	<path class="st4" d="M86.8,216.2c-0.6,0-0.6,1,0,1C87.4,217.2,87.4,216.2,86.8,216.2z"/>
	<path class="st4" d="M231.6,197.7c-0.6,0-0.6,1,0,1C232.2,198.7,232.2,197.7,231.6,197.7z"/>
	<path class="st4" d="M61.1,121.2c-0.6,0-0.6,1,0,1C61.7,122.2,61.7,121.2,61.1,121.2z"/>
	<path class="st4" d="M79.7,82.9c-0.6,0-0.6,1,0,1C80.3,83.9,80.3,82.9,79.7,82.9z"/>
	<path class="st4" d="M69.8,80.2c-0.6,0-0.6,1,0,1C70.5,81.2,70.5,80.2,69.8,80.2z"/>
	<path class="st4" d="M99.3,213.5c-0.6,0-0.6,1,0,1C100,214.5,100,213.5,99.3,213.5z"/>
	<path class="st4" d="M94.4,221.7c-0.6,0-0.6,1,0,1C95.1,222.7,95.1,221.7,94.4,221.7z"/>
	<path class="st4" d="M108.6,221.7c-0.6,0-0.6,1,0,1C109.3,222.7,109.3,221.7,108.6,221.7z"/>
	<path class="st4" d="M101,230.4c-0.6,0-0.6,1,0,1C101.6,231.4,101.6,230.4,101,230.4z"/>
	<path class="st4" d="M71.5,165.4c-0.6,0-0.6,1,0,1C72.1,166.4,72.1,165.4,71.5,165.4z"/>
	<path class="st4" d="M57.8,146.8c-0.6,0-0.6,1,0,1C58.4,147.8,58.4,146.8,57.8,146.8z"/>
	<path class="st4" d="M50.7,155.6c-0.6,0-0.6,1,0,1C51.3,156.6,51.3,155.6,50.7,155.6z"/>
	<path class="st4" d="M42,155.1c-1.9,0-1.9,3,0,3C43.9,158.1,43.9,155.1,42,155.1z"/>
	<path class="st4" d="M224.5,89c-1.9,0-1.9,3,0,3C226.4,92,226.4,89,224.5,89z"/>
	<path class="st4" d="M228.3,168.8c-1.9,0-1.9,3,0,3C230.2,171.8,230.2,168.8,228.3,168.8z"/>
	<path class="st4" d="M170.4,71c-1.9,0-1.9,3,0,3C172.3,74,172.3,71,170.4,71z"/>
	<path class="st4" d="M180.7,61.7c-1.9,0-1.9,3,0,3C182.7,64.7,182.7,61.7,180.7,61.7z"/>
	<path class="st4" d="M106.8,32.9c-1.9,0-1.9,3,0,3C108.7,35.9,108.7,32.9,106.8,32.9z"/>
	<path class="st4" d="M138.1,38.4c-1.9,0-1.9,3,0,3C140.1,41.4,140.1,38.4,138.1,38.4z"/>
	<path class="st4" d="M122.7,45.4c-0.6,0-0.6,1,0,1C123.4,46.4,123.4,45.4,122.7,45.4z"/>
	<path class="st4" d="M97.9,67.5c-0.6,0-0.6,1,0,1C98.6,68.5,98.6,67.5,97.9,67.5z"/>
	<path class="st4" d="M43.4,77.9c-0.6,0-0.6,1,0,1C44.1,78.9,44.1,77.9,43.4,77.9z"/>
	<path class="st4" d="M18.7,127.5c-0.6,0-0.6,1,0,1C19.3,128.5,19.3,127.5,18.7,127.5z"/>
	<path class="st4" d="M162.9,234.8c-0.6,0-0.6,1,0,1C163.6,235.8,163.6,234.8,162.9,234.8z"/>
	<path class="st4" d="M159.1,265.1c-0.6,0-0.6,1,0,1C159.7,266.1,159.7,265.1,159.1,265.1z"/>
	<path class="st4" d="M196,232.1c-0.6,0-0.6,1,0,1C196.6,233.1,196.6,232.1,196,232.1z"/>
	<path class="st4" d="M127.7,250.3c-0.6,0-0.6,1,0,1C128.3,251.3,128.3,250.3,127.7,250.3z"/>
	<path class="st4" d="M181.6,39.9c-0.6,0-0.6,1,0,1C182.3,40.9,182.3,39.9,181.6,39.9z"/>
	<path class="st4" d="M139.2,71.3c-0.6,0-0.6,1,0,1C139.9,72.3,139.9,71.3,139.2,71.3z"/>
	<path class="st4" d="M50,209.5c-0.6,0-0.6,1,0,1C50.7,210.5,50.7,209.5,50,209.5z"/>
	<path class="st4" d="M82.5,265.1c-0.6,0-0.6,1,0,1C83.2,266.1,83.2,265.1,82.5,265.1z"/>
	<path class="st4" d="M261.5,144.5c-0.6,0-0.6,1,0,1C262.1,145.5,262.1,144.5,261.5,144.5z"/>
	<path class="st4" d="M265.3,91.1c-0.6,0-0.6,1,0,1C266,92.1,266,91.1,265.3,91.1z"/>
	<path class="st4" d="M236.7,74.6c-0.6,0-0.6,1,0,1C237.3,75.6,237.3,74.6,236.7,74.6z"/>
	<path class="st4" d="M237.2,45.4c-0.6,0-0.6,1,0,1C237.9,46.4,237.9,45.4,237.2,45.4z"/>
	<path class="st4" d="M163.5,16.8c-0.6,0-0.6,1,0,1C164.1,17.8,164.1,16.8,163.5,16.8z"/>
	<path class="st4" d="M199.3,37.2c-0.6,0-0.6,1,0,1C199.9,38.2,199.9,37.2,199.3,37.2z"/>
	<path class="st4" d="M69.3,52.6c-0.6,0-0.6,1,0,1C70,53.6,70,52.6,69.3,52.6z"/>
	<path class="st4" d="M53.9,48.8c-1.9,0-1.9,3,0,3C55.8,51.8,55.8,48.8,53.9,48.8z"/>
	<path class="st4" d="M11.5,148.5c-1.9,0-1.9,3,0,3C13.4,151.5,13.4,148.5,11.5,148.5z"/>
	<path class="st4" d="M109.5,246.5c-1.9,0-1.9,3,0,3C111.4,249.5,111.4,246.5,109.5,246.5z"/>
	<path class="st4" d="M194.3,250.9c-1.9,0-1.9,3,0,3C196.2,253.9,196.2,250.9,194.3,250.9z"/>
	<path class="st4" d="M246.1,144.1c-1.9,0-1.9,3,0,3C248,147.1,248,144.1,246.1,144.1z"/>
	<path class="st4" d="M236.7,227.1c-0.6,0-0.6,1,0,1C237.3,228.1,237.3,227.1,236.7,227.1z"/>
	<path class="st4" d="M244.4,205.2c-1.9,0-1.9,3,0,3C246.3,208.2,246.3,205.2,244.4,205.2z"/>
	<path class="st4" d="M258.7,167.2c-1.9,0-1.9,3,0,3C260.7,170.2,260.7,167.2,258.7,167.2z"/>
	<g>
		
			<linearGradient id="SVGID_00000092440945052306281110000015421656497318252426_" gradientUnits="userSpaceOnUse" x1="143.9698" y1="225.1277" x2="144.4416" y2="171.8107">
			<stop  offset="0" style="stop-color:#FFFFFF"/>
			<stop  offset="1" style="stop-color:#DADADA"/>
		</linearGradient>
		<path style="fill:url(#SVGID_00000092440945052306281110000015421656497318252426_);" d="M213.6,196.6
			c-1-23.4-15.8-32.5-15.8-32.5c-20.2,24.5-53.8,24.5-53.8,24.5s-33.6,0-53.8-24.5c0,0-14.8,9-15.8,32.5s0,23.5,0,23.5h69.6h69.6
			C213.6,220.2,214.6,220.1,213.6,196.6z"/>
		
			<linearGradient id="SVGID_00000113328323423894022340000007593530720377270456_" gradientUnits="userSpaceOnUse" x1="74.5119" y1="133.5988" x2="93.2693" y2="133.5988">
			<stop  offset="0" style="stop-color:#FFFFFF"/>
			<stop  offset="1" style="stop-color:#DADADA"/>
		</linearGradient>
		<path style="fill:url(#SVGID_00000113328323423894022340000007593530720377270456_);" d="M91.2,147.9l-1.4-2.4l-0.1-0.3
			c-3.6-7.3-5.6-15.4-5.6-24c0-2,0.1-4,0.3-5.9c0,0-7.1,3.1-8.3,5.9c0,0-3.7,6.1,0,24.3c0.6,2.8,1,4.6,3.9,5.9
			c1.9,0.9,13.3,0.1,13.3,0.1l-1.7-2.9C91.4,148.4,91.3,148.1,91.2,147.9z"/>
		
			<linearGradient id="SVGID_00000039107638815383040810000004120997035479564452_" gradientUnits="userSpaceOnUse" x1="3430.3335" y1="133.5988" x2="3449.0911" y2="133.5988" gradientTransform="matrix(-1 0 0 1 3643.9299 0)">
			<stop  offset="0" style="stop-color:#FFFFFF"/>
			<stop  offset="1" style="stop-color:#DADADA"/>
		</linearGradient>
		<path style="fill:url(#SVGID_00000039107638815383040810000004120997035479564452_);" d="M196.9,147.9l1.4-2.4l0.1-0.3
			c3.6-7.3,5.6-15.4,5.6-24c0-2-0.1-4-0.3-5.9c0,0,7.1,3.1,8.3,5.9c0,0,3.7,6.1,0,24.3c-0.6,2.8-1,4.6-3.9,5.9
			c-1.9,0.9-13.3,0.1-13.3,0.1l1.7-2.9C196.7,148.4,196.8,148.1,196.9,147.9z"/>
		<ellipse class="st3" cx="144.1" cy="123" rx="60.2" ry="56.8"/>
		<g>
			<ellipse class="st8" cx="144.1" cy="125.4" rx="54.5" ry="48"/>
			<g class="st9">
				
					<linearGradient id="SVGID_00000044892808618822820440000013292584116497270425_" gradientUnits="userSpaceOnUse" x1="89.5628" y1="132.2931" x2="197.9374" y2="132.2931">
					<stop  offset="0" style="stop-color:#1D2241"/>
					<stop  offset="1" style="stop-color:#E39BA9"/>
				</linearGradient>
				<path style="fill:url(#SVGID_00000044892808618822820440000013292584116497270425_);" d="M185.2,131.1
					c-8.7-1.4-17.3-3.8-24.8-7.9c-9.8-5.2-14.8-13.8-23-20.3c-4-3.1-8.5-5.7-13.4-7.6c-5.5-2.2-11.7-3.6-18-4.2
					c-10.1,8.7-16.4,20.8-16.4,34.3c0,26.5,24.4,48,54.5,48c27.4,0,50.1-17.9,53.9-41.1C193.7,132.2,189.4,131.7,185.2,131.1z"/>
				<path class="st11" d="M175,145c-1.9-0.1-3.9-0.4-5.8-0.7c-15.3-2.4-28.9-10-38-20.6c-9.2-10.8-12-24.8-22.7-34.7
					c-11.6,8.8-19,21.8-19,36.4c0,26.5,24.4,48,54.5,48c23.7,0,43.8-13.3,51.3-31.9C186,146.4,175,145,175,145z"/>
				<path class="st12" d="M140.7,152.9c0,0-16.7,3.5-44.5-4.6c9.2,15,27.2,25.2,47.9,25.2c30.1,0,54.5-21.5,54.5-48
					c0-3.5-0.4-7-1.3-10.3C190,128.9,173.7,149.4,140.7,152.9z"/>
				
					<linearGradient id="SVGID_00000158026754845598570890000004541764540133062529_" gradientUnits="userSpaceOnUse" x1="90.3168" y1="153.3809" x2="163.5504" y2="153.3809">
					<stop  offset="0" style="stop-color:#1D2241"/>
					<stop  offset="1" style="stop-color:#E39BA9"/>
				</linearGradient>
				<path style="opacity:0.4;fill:url(#SVGID_00000158026754845598570890000004541764540133062529_);" d="M90.3,133.3
					c4.3,22.7,26.7,40.1,53.7,40.1c5.4,0,10.5-0.7,15.4-2C123.4,160.1,96.7,138.7,90.3,133.3z"/>
			</g>
		</g>
		<g>
			<g class="st14">
				<path class="st3" d="M183.1,114.3c0.1,0.2,0.2,0.4,0.4,0.6c0.4,0.8-0.3-0.7,0,0.1c0.2,0.4,0.3,0.8,0.5,1.2c0.8,2,1.2,4,1.3,6
					c0.6,8.8-3.6,16.7-8.6,23.4c-2.7,3.7,4.1,7.3,6.8,3.7c7.3-9.9,14.1-26.2,5.9-38.6C186.7,106.6,180.4,110.2,183.1,114.3
					L183.1,114.3z"/>
			</g>
			
				<ellipse transform="matrix(0.4711 -0.8821 0.8821 0.4711 -46.4729 233.7528)" class="st15" cx="171.7" cy="155.6" rx="3.9" ry="4.3"/>
		</g>
		
			<linearGradient id="SVGID_00000145045463910659036420000007854517707262566833_" gradientUnits="userSpaceOnUse" x1="144.0139" y1="159.1205" x2="142.8494" y2="216.7639">
			<stop  offset="0" style="stop-color:#1D2241"/>
			<stop  offset="1" style="stop-color:#E39BA9"/>
		</linearGradient>
		<path style="fill:url(#SVGID_00000145045463910659036420000007854517707262566833_);" d="M195.1,153.2L195.1,153.2
			c-10.7,15.8-29.4,26.3-50.8,26.3c-21.6,0-40.5-10.8-51.2-26.9l0,0c0,0-4.6-0.8-5.5,4.2c0,0-1.9,10,24.4,24.3
			c12.2,6,37.8,14.1,69-1.6c0.5-0.3,0.9-0.5,1.3-0.8c0.1,0,0.1-0.1,0.2-0.1c5.1-3.1,8.5-6.3,10-7.8c2-2.2,4.5-5.2,6.3-8.5
			C198.8,162.2,204.6,153,195.1,153.2z"/>
		<g>
			<path class="st8" d="M114.1,198.4c-8.1,0-14.6,6.5-14.6,14.6c0,2.6,0.7,5.1,1.9,7.2h4.6c-1.7-1.9-2.7-4.4-2.7-7.2
				c0-6,4.8-10.8,10.8-10.8s10.8,4.8,10.8,10.8c0,2.8-1,5.3-2.7,7.2h4.6c1.2-2.1,1.9-4.6,1.9-7.2
				C128.7,204.9,122.2,198.4,114.1,198.4z"/>
			<path class="st8" d="M124.9,213c0-6-4.8-10.8-10.8-10.8s-10.8,4.8-10.8,10.8c0,2.8,1,5.3,2.7,7.2h16.2
				C123.9,218.3,124.9,215.8,124.9,213z"/>
			
				<linearGradient id="SVGID_00000166674276237270420850000001359845838350979226_" gradientUnits="userSpaceOnUse" x1="103.2579" y1="211.1757" x2="124.9134" y2="211.1757">
				<stop  offset="0" style="stop-color:#1D2241"/>
				<stop  offset="1" style="stop-color:#E39BA9"/>
			</linearGradient>
			<path style="opacity:0.25;fill:url(#SVGID_00000166674276237270420850000001359845838350979226_);" d="M124.9,213
				c0-6-4.8-10.8-10.8-10.8s-10.8,4.8-10.8,10.8c0,2.8,1,5.3,2.7,7.2h16.2C123.9,218.3,124.9,215.8,124.9,213z"/>
		</g>
		<g>
			<path class="st18" d="M140.9,214.2c0-6.6,5.4-12,12-12h24.2c6.6,0,12,5.4,12,12v6h4.1v-9.8c0-6.6-5.4-12-12-12h-32.4
				c-6.6,0-12,5.4-12,12v9.8h4.1V214.2z"/>
			<path class="st18" d="M177.1,202.2h-24.2c-6.6,0-12,5.4-12,12v6h48.2v-6C189.1,207.6,183.7,202.2,177.1,202.2z"/>
			
				<linearGradient id="SVGID_00000097496124776878963400000018028606632687370634_" gradientUnits="userSpaceOnUse" x1="140.9252" y1="211.1757" x2="189.1291" y2="211.1757">
				<stop  offset="0" style="stop-color:#FFFFFF"/>
				<stop  offset="1" style="stop-color:#DADADA"/>
			</linearGradient>
			<path style="fill:url(#SVGID_00000097496124776878963400000018028606632687370634_);" d="M177.1,202.2h-24.2c-6.6,0-12,5.4-12,12
				v6h48.2v-6C189.1,207.6,183.7,202.2,177.1,202.2z"/>
		</g>
	</g>
</g>
</svg>
