<?xml version="1.0" encoding="utf-8"?>
<!-- Generator: Adobe Illustrator 26.2.1, SVG Export Plug-In . SVG Version: 6.00 Build 0)  -->
<svg version="1.1" id="Layer_1" xmlns="http://www.w3.org/2000/svg" xmlns:xlink="http://www.w3.org/1999/xlink" x="0px" y="0px"
	 viewBox="0 0 288.2 288.2" style="enable-background:new 0 0 288.2 288.2;" xml:space="preserve">
<style type="text/css">
	.st0{fill:url(#SVGID_1_);}
	.st1{fill:url(#SVGID_00000103980683219666199900000003531481645514417851_);}
	.st2{opacity:0.8;}
	.st3{fill:url(#SVGID_00000050623386947056851160000002479408427563913608_);}
	.st4{opacity:0.2;fill:#FFFFFF;}
	.st5{opacity:0.3;fill:#FFFFFF;}
	.st6{opacity:0.4;fill:url(#SVGID_00000033341007452980968330000001924728290470844554_);}
	.st7{opacity:0.53;}
	.st8{fill:#FFFFFF;}
	.st9{fill:url(#SVGID_00000080916531461618413610000012346879224290989711_);}
	.st10{opacity:0.53;fill:#FFFFFF;}
	.st11{opacity:0.84;}
	.st12{opacity:0.88;fill:#FFFFFF;}
	.st13{opacity:0.84;fill:#FFFFFF;}
</style>
<radialGradient id="SVGID_1_" cx="144.0763" cy="144.0763" r="144.0763" gradientUnits="userSpaceOnUse">
	<stop  offset="0" style="stop-color:#E9AEB9"/>
	<stop  offset="7.235993e-02" style="stop-color:#D8A1AE"/>
	<stop  offset="0.212" style="stop-color:#B18094"/>
	<stop  offset="0.4048" style="stop-color:#765371"/>
	<stop  offset="0.641" style="stop-color:#32294B"/>
	<stop  offset="0.7169" style="stop-color:#1E2141"/>
	<stop  offset="1" style="stop-color:#1E2141"/>
</radialGradient>
<circle class="st0" cx="144.1" cy="144.1" r="144.1"/>
<g>
	<g>
		
			<linearGradient id="SVGID_00000048486440112783345410000001182750537091949231_" gradientUnits="userSpaceOnUse" x1="76.1969" y1="147.3596" x2="213.7573" y2="147.3596">
			<stop  offset="0" style="stop-color:#1D2241"/>
			<stop  offset="1" style="stop-color:#E39BA9"/>
		</linearGradient>
		<circle style="fill:url(#SVGID_00000048486440112783345410000001182750537091949231_);" cx="145" cy="147.4" r="68.8"/>
		<g class="st2">
			
				<linearGradient id="SVGID_00000077282711932451923090000005383395251706121368_" gradientUnits="userSpaceOnUse" x1="76.1408" y1="157.1911" x2="212.9894" y2="157.1911">
				<stop  offset="0" style="stop-color:#1D2241"/>
				<stop  offset="1" style="stop-color:#E39BA9"/>
			</linearGradient>
			<path style="fill:url(#SVGID_00000077282711932451923090000005383395251706121368_);" d="M196.9,155.4c-11-2-21.8-5.5-31.3-11.3
				c-12.3-7.5-18.7-19.8-29-29.1c-5-4.5-10.8-8.2-17-10.9c-7-3.1-14.8-5.1-22.8-6c-12.7,12.5-20.7,29.9-20.7,49.1
				c0,38,30.8,68.8,68.8,68.8c34.6,0,63.3-25.6,68.1-58.9C207.6,157,202.2,156.4,196.9,155.4z"/>
			<path class="st4" d="M184.1,175.4c-2.4-0.2-4.9-0.5-7.3-0.9c-19.3-3.4-36.5-14.4-47.9-29.6c-11.7-15.4-15.1-35.6-28.7-49.7
				c-14.7,12.6-24,31.3-24,52.1c0,38,30.8,68.8,68.8,68.8c29.9,0,55.3-19.1,64.8-45.7C197.9,177.5,184.1,175.4,184.1,175.4z"/>
			<path class="st5" d="M140.7,186.7c0,0-21.1,5.1-56.2-6.7c11.6,21.5,34.4,36.1,60.5,36.1c38,0,68.8-30.8,68.8-68.8
				c0-5.1-0.6-10-1.6-14.8C202.9,152.4,182.4,181.7,140.7,186.7z"/>
			
				<linearGradient id="SVGID_00000146479037423440782470000012951204860851109510_" gradientUnits="userSpaceOnUse" x1="77.093" y1="187.4162" x2="169.5677" y2="187.4162">
				<stop  offset="0" style="stop-color:#1D2241"/>
				<stop  offset="1" style="stop-color:#E39BA9"/>
			</linearGradient>
			<path style="opacity:0.4;fill:url(#SVGID_00000146479037423440782470000012951204860851109510_);" d="M77.1,158.7
				c5.4,32.6,33.7,57.5,67.8,57.5c6.8,0,13.3-1,19.5-2.8C118.9,197,85.1,166.4,77.1,158.7z"/>
		</g>
		<g class="st7">
			<path class="st8" d="M185.8,116c0.3,0.2,0.5,0.3,0.8,0.5c1,0.6-0.8-0.7,0.1,0c0.4,0.4,0.9,0.7,1.3,1.1c2.1,1.9,3.7,4.1,5.2,6.6
				c6,10.4,6.1,22.9,4.5,34.4c-0.9,6.4,9.2,6.3,10,0c2.3-16.9,0.1-41.5-16.7-51.3C185.3,104.2,180.2,112.8,185.8,116L185.8,116z"/>
		</g>
		
			<linearGradient id="SVGID_00000079464809718594165610000007534853806388537778_" gradientUnits="userSpaceOnUse" x1="110.4732" y1="60.6297" x2="157.7553" y2="190.9749">
			<stop  offset="0" style="stop-color:#FFFFFF"/>
			<stop  offset="1" style="stop-color:#E39BA9"/>
		</linearGradient>
		<path style="fill:url(#SVGID_00000079464809718594165610000007534853806388537778_);" d="M244.1,107.6
			C244.1,107.6,244.1,107.6,244.1,107.6c-0.4-0.9-1-1.6-1.8-2.3c-5.3-4.4-17.5-3.9-37.4,1.8l-1.6,0.5l-1.6,0.7l1.2,1.9l0.2,0.4
			c0,0,1.1,1.6,1.8,3l4-1.3c22.2-6,28.1-3.4,29.5-2.4c0.1,0.1,0.2,0.1,0.2,0.2c0,0,0.1,0.1,0.2,0.1c0.1,0.1,0.7,0.9,0.2,3.8
			l-0.1,0.3l0,0c0,0,0,0.1,0,0.1c-1.9,8.1-14.9,18.1-19.8,21.3c-70.2,47-154.7,50.7-155.6,50.7c-6.6,0.3-16.8-0.7-19.1-4.2
			c-0.2-0.4-1-1.5,0.4-4.3c5.8-11.8,24.8-20.5,28.4-22.1l0,0l1.9-0.9l0,0l1.5-0.5c-0.3-4.3-0.3-6.4-0.3-6.4l-2.9,1.2l-1.8,0.7
			c-1,0.4-24.8,10.2-32.2,25.3c-2.4,4.8-1.3,8.2,0,10.2c4,6,15.3,6.9,21.6,6.9c1.4,0,2.4,0,2.7-0.1c0.9,0,86.9-3.7,158.6-51.7
			c0.3-0.2,6.3-4.1,12.1-9.7c5.6-5.3,9-10.3,10.2-14.9c0,0,0,0,0-0.1C246,110.7,244.2,107.7,244.1,107.6z"/>
		<circle class="st10" cx="197.9" cy="174.4" r="5.5"/>
		<g class="st11">
			<path class="st12" d="M210.6,198c0.7-3.1-4.1-4.3-4.9-1.1C205,200,209.9,201.1,210.6,198z"/>
			<path class="st8" d="M216.5,188.9c0.4-1.9-2.5-2.6-2.9-0.7C213.1,190.1,216,190.8,216.5,188.9z"/>
			<path class="st8" d="M220.4,177.7c0.4-1.9-2.5-2.6-2.9-0.7C217,178.9,219.9,179.6,220.4,177.7z"/>
			<path class="st8" d="M222.9,200.4c0.4-1.9-2.5-2.6-2.9-0.7C219.6,201.6,222.5,202.3,222.9,200.4z"/>
			<path class="st12" d="M227.3,188.9c0.2-0.9-1.2-1.3-1.5-0.3C225.6,189.5,227.1,189.9,227.3,188.9z"/>
			<path class="st8" d="M235.2,190.8c0.2-0.9-1.2-1.3-1.5-0.3C233.5,191.4,235,191.7,235.2,190.8z"/>
			<path class="st8" d="M232.2,180.2c0.2-0.9-1.2-1.3-1.5-0.3C230.5,180.8,232,181.2,232.2,180.2z"/>
		</g>
		<g class="st11">
			<path class="st8" d="M73.6,102.8c-3.2,0-3.2,5,0,5C76.8,107.8,76.8,102.8,73.6,102.8z"/>
			<path class="st12" d="M73.2,117.3c-3.2,0-3.2,5,0,5C76.4,122.3,76.4,117.3,73.2,117.3z"/>
			<path class="st12" d="M63.4,99.2c-1.9,0-1.9,3,0,3C65.4,102.2,65.4,99.2,63.4,99.2z"/>
			<path class="st8" d="M53.9,108.9c-3.3,0-3.3,5.2,0,5.2C57.3,114.1,57.3,108.9,53.9,108.9z"/>
			<path class="st8" d="M65.1,113.5c-1.9,0-1.9,3,0,3C67.1,116.5,67.1,113.5,65.1,113.5z"/>
			<path class="st12" d="M51.6,97.9c-1.9,0-1.9,3,0,3C53.6,100.9,53.6,97.9,51.6,97.9z"/>
			<path class="st8" d="M73.2,90.3c-1.9,0-1.9,3,0,3C75.1,93.3,75.1,90.3,73.2,90.3z"/>
			<path class="st8" d="M61,88.6c-1,0-1,1.5,0,1.5C62,90.1,62,88.6,61,88.6z"/>
			<path class="st12" d="M61,80.5c-1,0-1,1.5,0,1.5C62,82,62,80.5,61,80.5z"/>
			<path class="st8" d="M51.4,85.8c-1,0-1,1.5,0,1.5C52.4,87.3,52.4,85.8,51.4,85.8z"/>
			<path class="st12" d="M83.3,94.5c-1.9,0-1.9,3,0,3C85.2,97.5,85.2,94.5,83.3,94.5z"/>
		</g>
		<path class="st13" d="M205.1,76.2c0,0-1.1,8.3-5.5,9.6c0,0,4.6,1.5,5.5,7.5c0,0,2.3-8.2,4.6-8.5C209.7,84.8,204.9,83.5,205.1,76.2
			z"/>
		<path class="st13" d="M191.4,65.3c0,0-0.9,5.3-6.6,8.1c0,0,4.1,2.6,4.9,6.2c0,0,1.6-4.4,5.1-6.3C194.8,73.3,189.7,71.2,191.4,65.3
			z"/>
		<path class="st13" d="M83.8,201.7c0,0-0.8,4.6-5.7,7c0,0,3.6,2.3,4.3,5.3c0,0,1.4-3.8,4.4-5.4C86.8,208.6,82.4,206.8,83.8,201.7z"
			/>
	</g>
	<path class="st13" d="M197.7,63.2c-0.6,0-0.6,1,0,1C198.3,64.2,198.3,63.2,197.7,63.2z"/>
	<path class="st13" d="M203.1,71.4c-0.6,0-0.6,1,0,1C203.8,72.4,203.8,71.4,203.1,71.4z"/>
	<path class="st13" d="M213,65.4c-0.6,0-0.6,1,0,1C213.6,66.4,213.6,65.4,213,65.4z"/>
	<path class="st13" d="M216.3,76.9c-0.6,0-0.6,1,0,1C216.9,77.9,216.9,76.9,216.3,76.9z"/>
	<path class="st13" d="M72.6,205.3c-0.6,0-0.6,1,0,1C73.2,206.3,73.2,205.3,72.6,205.3z"/>
	<path class="st13" d="M76.4,213c-0.6,0-0.6,1,0,1C77,214,77,213,76.4,213z"/>
	<path class="st13" d="M64.9,211.3c-0.6,0-0.6,1,0,1C65.5,212.3,65.5,211.3,64.9,211.3z"/>
	<path class="st13" d="M76.4,223.3c-0.6,0-0.6,1,0,1C77,224.3,77,223.3,76.4,223.3z"/>
	<path class="st13" d="M86.8,216.2c-0.6,0-0.6,1,0,1C87.4,217.2,87.4,216.2,86.8,216.2z"/>
	<path class="st13" d="M231.6,197.7c-0.6,0-0.6,1,0,1C232.2,198.7,232.2,197.7,231.6,197.7z"/>
	<path class="st13" d="M61.1,121.2c-0.6,0-0.6,1,0,1C61.7,122.2,61.7,121.2,61.1,121.2z"/>
	<path class="st13" d="M79.7,82.9c-0.6,0-0.6,1,0,1C80.3,83.9,80.3,82.9,79.7,82.9z"/>
	<path class="st13" d="M69.8,80.2c-0.6,0-0.6,1,0,1C70.5,81.2,70.5,80.2,69.8,80.2z"/>
	<path class="st13" d="M99.3,213.5c-0.6,0-0.6,1,0,1C100,214.5,100,213.5,99.3,213.5z"/>
	<path class="st13" d="M94.4,221.7c-0.6,0-0.6,1,0,1C95.1,222.7,95.1,221.7,94.4,221.7z"/>
	<path class="st13" d="M108.6,221.7c-0.6,0-0.6,1,0,1C109.3,222.7,109.3,221.7,108.6,221.7z"/>
	<path class="st13" d="M101,230.4c-0.6,0-0.6,1,0,1C101.6,231.4,101.6,230.4,101,230.4z"/>
	<path class="st13" d="M71.5,165.4c-0.6,0-0.6,1,0,1C72.1,166.4,72.1,165.4,71.5,165.4z"/>
	<path class="st13" d="M57.8,146.8c-0.6,0-0.6,1,0,1C58.4,147.8,58.4,146.8,57.8,146.8z"/>
	<path class="st13" d="M50.7,155.6c-0.6,0-0.6,1,0,1C51.3,156.6,51.3,155.6,50.7,155.6z"/>
	<path class="st13" d="M42,155.1c-1.9,0-1.9,3,0,3C43.9,158.1,43.9,155.1,42,155.1z"/>
	<path class="st13" d="M224.5,89c-1.9,0-1.9,3,0,3C226.4,92,226.4,89,224.5,89z"/>
	<path class="st13" d="M228.3,168.8c-1.9,0-1.9,3,0,3C230.2,171.8,230.2,168.8,228.3,168.8z"/>
	<path class="st13" d="M170.4,71c-1.9,0-1.9,3,0,3C172.3,74,172.3,71,170.4,71z"/>
	<path class="st13" d="M180.7,61.7c-1.9,0-1.9,3,0,3C182.7,64.7,182.7,61.7,180.7,61.7z"/>
</g>
<path class="st13" d="M106.8,32.9c-1.9,0-1.9,3,0,3C108.7,35.9,108.7,32.9,106.8,32.9z"/>
<path class="st13" d="M138.1,38.4c-1.9,0-1.9,3,0,3C140.1,41.4,140.1,38.4,138.1,38.4z"/>
<path class="st13" d="M122.7,45.4c-0.6,0-0.6,1,0,1C123.4,46.4,123.4,45.4,122.7,45.4z"/>
<path class="st13" d="M97.9,67.5c-0.6,0-0.6,1,0,1C98.6,68.5,98.6,67.5,97.9,67.5z"/>
<path class="st13" d="M43.4,77.9c-0.6,0-0.6,1,0,1C44.1,78.9,44.1,77.9,43.4,77.9z"/>
<path class="st13" d="M18.7,127.5c-0.6,0-0.6,1,0,1C19.3,128.5,19.3,127.5,18.7,127.5z"/>
<path class="st13" d="M162.9,234.8c-0.6,0-0.6,1,0,1C163.6,235.8,163.6,234.8,162.9,234.8z"/>
<path class="st13" d="M159.1,265.1c-0.6,0-0.6,1,0,1C159.7,266.1,159.7,265.1,159.1,265.1z"/>
<path class="st13" d="M196,232.1c-0.6,0-0.6,1,0,1C196.6,233.1,196.6,232.1,196,232.1z"/>
<path class="st13" d="M127.7,250.3c-0.6,0-0.6,1,0,1C128.3,251.3,128.3,250.3,127.7,250.3z"/>
<path class="st13" d="M181.6,39.9c-0.6,0-0.6,1,0,1C182.3,40.9,182.3,39.9,181.6,39.9z"/>
<path class="st13" d="M139.2,71.3c-0.6,0-0.6,1,0,1C139.9,72.3,139.9,71.3,139.2,71.3z"/>
<path class="st13" d="M50,209.5c-0.6,0-0.6,1,0,1C50.7,210.5,50.7,209.5,50,209.5z"/>
<path class="st13" d="M82.5,265.1c-0.6,0-0.6,1,0,1C83.2,266.1,83.2,265.1,82.5,265.1z"/>
<path class="st13" d="M261.5,144.5c-0.6,0-0.6,1,0,1C262.1,145.5,262.1,144.5,261.5,144.5z"/>
<path class="st13" d="M265.3,91.1c-0.6,0-0.6,1,0,1C266,92.1,266,91.1,265.3,91.1z"/>
<path class="st13" d="M236.7,74.6c-0.6,0-0.6,1,0,1C237.3,75.6,237.3,74.6,236.7,74.6z"/>
<path class="st13" d="M237.2,45.4c-0.6,0-0.6,1,0,1C237.9,46.4,237.9,45.4,237.2,45.4z"/>
<path class="st13" d="M163.5,16.8c-0.6,0-0.6,1,0,1C164.1,17.8,164.1,16.8,163.5,16.8z"/>
<path class="st13" d="M199.3,37.2c-0.6,0-0.6,1,0,1C199.9,38.2,199.9,37.2,199.3,37.2z"/>
<path class="st13" d="M69.3,52.6c-0.6,0-0.6,1,0,1C70,53.6,70,52.6,69.3,52.6z"/>
<path class="st13" d="M53.9,48.8c-1.9,0-1.9,3,0,3C55.8,51.8,55.8,48.8,53.9,48.8z"/>
<path class="st13" d="M11.5,148.5c-1.9,0-1.9,3,0,3C13.4,151.5,13.4,148.5,11.5,148.5z"/>
<path class="st13" d="M109.5,246.5c-1.9,0-1.9,3,0,3C111.4,249.5,111.4,246.5,109.5,246.5z"/>
<path class="st13" d="M194.3,250.9c-1.9,0-1.9,3,0,3C196.2,253.9,196.2,250.9,194.3,250.9z"/>
<path class="st13" d="M246.1,144.1c-1.9,0-1.9,3,0,3C248,147.1,248,144.1,246.1,144.1z"/>
<path class="st13" d="M236.7,227.1c-0.6,0-0.6,1,0,1C237.3,228.1,237.3,227.1,236.7,227.1z"/>
<path class="st13" d="M244.4,205.2c-1.9,0-1.9,3,0,3C246.3,208.2,246.3,205.2,244.4,205.2z"/>
<path class="st13" d="M258.7,167.2c-1.9,0-1.9,3,0,3C260.7,170.2,260.7,167.2,258.7,167.2z"/>
</svg>
